<?xml version="1.0" ?><!DOCTYPE svg  PUBLIC '-//W3C//DTD SVG 1.1//EN'  'http://www.w3.org/Graphics/SVG/1.1/DTD/svg11.dtd'><svg height="512px" style="enable-background:new 0 0 512 512;" version="1.1" viewBox="0 0 512 512" width="512px" xml:space="preserve" xmlns="http://www.w3.org/2000/svg" xmlns:xlink="http://www.w3.org/1999/xlink"><g id="_x31_8-tripadvisor_x2C__travel"><g><g><g><path d="M494.369,165.185H410.26c-89.178-77.756-219.811-77.756-308.99,0H17.167      c0,0,19.084,23.326,26.842,45.159c-16.702,20.341-26.842,46.054-26.842,74.466c0,66.088,53.387,119.621,119.298,119.621      c39.075,0,73.672-19.14,95.442-48.447l25.055,48.447l22.965-48.146c21.773,29.006,56.07,48.146,95.143,48.146      c65.914,0,119.301-53.533,119.301-119.621c0-28.412-10.143-54.125-26.846-74.466      C475.281,188.511,494.369,165.185,494.369,165.185L494.369,165.185z M136.464,374.523c-49.21,0-89.471-40.369-89.471-89.714      c0-49.347,40.261-89.718,89.471-89.718c49.213,0,89.475,40.371,89.475,89.718C225.939,334.154,185.678,374.523,136.464,374.523      L136.464,374.523z M255.766,284.81c0-61.308-46.527-111.546-106.177-118.43c65.316-39.474,147.037-39.474,212.359,0      C302.295,173.264,255.766,223.502,255.766,284.81L255.766,284.81z M375.068,374.523c-49.211,0-89.477-40.369-89.477-89.714      c0-49.347,40.266-89.718,89.477-89.718c49.213,0,89.475,40.371,89.475,89.718C464.543,334.154,424.281,374.523,375.068,374.523      L375.068,374.523z M375.068,374.523" style="fill:#516874;"/></g><path d="M361.947,166.38c-59.652,6.884-106.182,57.122-106.182,118.43     c0-61.308-46.527-111.546-106.177-118.43C214.904,126.906,296.625,126.906,361.947,166.38L361.947,166.38z M361.947,166.38" style="fill:#FFEB3B;"/><path d="M136.464,344.624c-32.894,0-59.649-26.83-59.649-59.814c0-32.99,26.756-59.818,59.649-59.818     c32.901,0,59.653,26.828,59.653,59.818C196.117,317.794,169.366,344.624,136.464,344.624L136.464,344.624z M136.464,254.904     c-16.435,0-29.822,13.429-29.822,29.905s13.388,29.901,29.822,29.901s29.825-13.425,29.825-29.901     S152.899,254.904,136.464,254.904L136.464,254.904z M136.464,254.904" style="fill:#516874;"/><path d="M375.068,344.624c-32.893,0-59.65-26.83-59.65-59.814c0-32.99,26.758-59.818,59.65-59.818     c32.896,0,59.646,26.828,59.646,59.818C434.715,317.794,407.965,344.624,375.068,344.624L375.068,344.624z M375.068,254.904     c-16.463,0-29.822,13.429-29.822,29.905s13.359,29.901,29.822,29.901c16.465,0,29.824-13.425,29.824-29.901     S391.533,254.904,375.068,254.904L375.068,254.904z M375.068,254.904" style="fill:#516874;"/><path d="M151.379,284.81c0,8.257-6.68,14.95-14.915,14.95c-8.231,0-14.911-6.693-14.911-14.95     c0-8.259,6.68-14.953,14.911-14.953C144.7,269.856,151.379,276.551,151.379,284.81L151.379,284.81z M151.379,284.81" style="fill:#F84437;"/><path d="M389.979,284.81c0,8.257-6.676,14.95-14.91,14.95c-8.236,0-14.916-6.693-14.916-14.95     c0-8.259,6.68-14.953,14.916-14.953C383.303,269.856,389.979,276.551,389.979,284.81L389.979,284.81z M389.979,284.81" style="fill:#5ACF5F;"/></g></g></g><g id="Layer_1"/></svg>