<?xml version="1.0" ?><svg viewBox="0 0 64 64" xmlns="http://www.w3.org/2000/svg"><defs><style>.cls-1{fill:#8bc4ff;}.cls-2{fill:#2e58ff;}</style></defs><title/><g id="Ticket"><path class="cls-1" d="M54,32a8,8,0,0,0,8,8V50H43a5,5,0,0,0-10,0H2V14H33a5,5,0,0,0,10,0H62V24A8,8,0,0,0,54,32Z"/><path class="cls-2" d="M62,52H43a2,2,0,0,1-2-2,3,3,0,0,0-6,0,2,2,0,0,1-2,2H2a2,2,0,0,1-2-2V14a2,2,0,0,1,2-2H33a2,2,0,0,1,2,2,3,3,0,0,0,6,0,2,2,0,0,1,2-2H62a2,2,0,0,1,2,2V24a2,2,0,0,1-2,2,6,6,0,0,0,0,12,2,2,0,0,1,2,2V50A2,2,0,0,1,62,52ZM44.71,48H60V41.8a10,10,0,0,1,0-19.6V16H44.71a7,7,0,0,1-13.42,0H4V48H31.29A7,7,0,0,1,44.71,48Z"/><path class="cls-2" d="M38,31a2,2,0,0,1-2-2V25a2,2,0,0,1,4,0v4A2,2,0,0,1,38,31Z"/><path class="cls-2" d="M38,41a2,2,0,0,1-2-2V35a2,2,0,0,1,4,0v4A2,2,0,0,1,38,41Z"/><path class="cls-2" d="M30,42H10a2,2,0,0,1,0-4H30a2,2,0,0,1,0,4Z"/><path class="cls-2" d="M30,34H10a2,2,0,0,1,0-4H30a2,2,0,0,1,0,4Z"/><path class="cls-2" d="M20,26H10a2,2,0,0,1,0-4H20a2,2,0,0,1,0,4Z"/></g></svg>